<?xml version="1.0" encoding="UTF-8" standalone="no"?>
<!-- Created with Inkscape (http://www.inkscape.org/) -->

<svg
   xmlns:dc="http://purl.org/dc/elements/1.1/"
   xmlns:cc="http://creativecommons.org/ns#"
   xmlns:rdf="http://www.w3.org/1999/02/22-rdf-syntax-ns#"
   xmlns:svg="http://www.w3.org/2000/svg"
   xmlns="http://www.w3.org/2000/svg"
   xmlns:sodipodi="http://sodipodi.sourceforge.net/DTD/sodipodi-0.dtd"
   xmlns:inkscape="http://www.inkscape.org/namespaces/inkscape"
   width="186.72287"
   height="18.163277"
   id="svg3055"
   version="1.1"
   inkscape:version="0.48.1 r9760"
   sodipodi:docname="marker1.svg">
  <defs
     id="defs3057" />
  <sodipodi:namedview
     id="base"
     pagecolor="#ffffff"
     bordercolor="#666666"
     borderopacity="1.0"
     inkscape:pageopacity="0.0"
     inkscape:pageshadow="2"
     inkscape:zoom="2.8284271"
     inkscape:cx="211.63861"
     inkscape:cy="27.811524"
     inkscape:document-units="px"
     inkscape:current-layer="layer1"
     showgrid="false"
     fit-margin-top="0"
     fit-margin-left="0"
     fit-margin-right="0"
     fit-margin-bottom="0"
     inkscape:window-width="1867"
     inkscape:window-height="1060"
     inkscape:window-x="51"
     inkscape:window-y="-3"
     inkscape:window-maximized="1" />
  <metadata
     id="metadata3060">
    <rdf:RDF>
      <cc:Work
         rdf:about="">
        <dc:format>image/svg+xml</dc:format>
        <dc:type
           rdf:resource="http://purl.org/dc/dcmitype/StillImage" />
        <dc:title></dc:title>
      </cc:Work>
    </rdf:RDF>
  </metadata>
  <g
     inkscape:label="Layer 1"
     inkscape:groupmode="layer"
     id="layer1"
     transform="translate(-63.098211,-333.45095)">
    <path
       style="opacity:0.7;fill:#dcff32;fill-opacity:1;stroke:none"
       id="path3691"
       d="m 7.4141829,50.740163 c 13.1919611,0 26.3839221,0 39.5758831,0 2.828427,0 5.657838,-0.0746 8.485281,0 2.405988,0.06348 4.804678,0.295754 7.208594,0.414045 2.732102,0.13444 5.464874,0.26054 8.199004,0.344126 8.579422,0.262283 17.158787,0.128218 25.739273,0.02543 13.121582,-0.227277 26.245642,-0.08121 39.368292,-0.06361 11.64053,-0.0041 23.28104,-0.01819 34.92158,-0.01393 2.75576,0.0035 5.51154,0.0018 8.2673,-6.47e-4 0.64351,0.0052 -0.59769,0.03359 -0.32161,-0.403525 0.15649,-0.247754 0.57238,-0.137735 0.86467,-0.158654 1.32701,-0.09497 2.67928,0.10237 3.99816,0.22487 0.29418,0.01523 0.60421,0.142144 0.88255,0.04568 0.11793,-0.04088 0.0363,-0.246976 0.0545,-0.370464 0.23339,-0.06893 0.45838,-0.179246 0.70016,-0.206796 1.15405,-0.131495 2.3404,0.02496 3.47932,0.198336 0.64827,0.150055 0.40279,0.156679 0.72457,0.133313 0,0 -5.56871,16.777649 -5.56871,16.777649 l 0,0 c -0.32649,-0.06129 -0.28433,-0.159741 -0.32126,-0.0048 -0.37496,0.111189 -0.78553,0.264403 -1.16374,0.34194 -1.25483,0.257255 -2.51409,0.101518 -3.78048,0.043 -0.44778,0.0094 -0.86686,-0.02064 -1.29822,0.132152 -0.0932,0.03302 -0.14484,0.140518 -0.23505,0.181063 -0.83088,0.373452 -1.68223,0.173333 -2.57885,0.144583 -2.76037,0.0049 -5.52079,-0.0086 -8.28116,-0.0031 -11.64426,-0.0026 -23.2885,0.01587 -34.93275,0.01093 -13.08827,-0.0244 -26.17766,-0.140274 -39.264887,0.09107 -8.734899,0.07897 -17.462175,0.148824 -26.194406,-0.151347 -5.015866,-0.17242 -10.024283,-0.559702 -15.042188,-0.656043 -2.827906,-0.05429 -5.656854,0 -8.485281,0 -13.191961,0 -26.383922,0 -39.5758826,0 0,0 4.5753175,-17.075318 4.5753175,-17.075318 z"
       inkscape:connector-curvature="0"
       transform="translate(60.259366,282.9232)"
       inkscape:export-filename="/home/snap/Escritorio/folleto_2/marker1.png"
       inkscape:export-xdpi="300"
       inkscape:export-ydpi="300" />
  </g>
</svg>
