<?xml version="1.0" encoding="UTF-8" standalone="no"?>
<!-- Created with Inkscape (http://www.inkscape.org/) -->

<svg
   xmlns:dc="http://purl.org/dc/elements/1.1/"
   xmlns:cc="http://creativecommons.org/ns#"
   xmlns:rdf="http://www.w3.org/1999/02/22-rdf-syntax-ns#"
   xmlns:svg="http://www.w3.org/2000/svg"
   xmlns="http://www.w3.org/2000/svg"
   xmlns:sodipodi="http://sodipodi.sourceforge.net/DTD/sodipodi-0.dtd"
   xmlns:inkscape="http://www.inkscape.org/namespaces/inkscape"
   width="129.83223"
   height="18.881695"
   id="svg3693"
   version="1.1"
   inkscape:version="0.48.1 r9760"
   sodipodi:docname="marker2.svg">
  <defs
     id="defs3695" />
  <sodipodi:namedview
     id="base"
     pagecolor="#ffffff"
     bordercolor="#666666"
     borderopacity="1.0"
     inkscape:pageopacity="0.0"
     inkscape:pageshadow="2"
     inkscape:zoom="2.8"
     inkscape:cx="106.68753"
     inkscape:cy="49.521088"
     inkscape:document-units="px"
     inkscape:current-layer="layer1"
     showgrid="false"
     units="mm"
     fit-margin-top="0"
     fit-margin-left="0"
     fit-margin-right="0"
     fit-margin-bottom="0"
     inkscape:window-width="1867"
     inkscape:window-height="1060"
     inkscape:window-x="51"
     inkscape:window-y="-3"
     inkscape:window-maximized="1" />
  <metadata
     id="metadata3698">
    <rdf:RDF>
      <cc:Work
         rdf:about="">
        <dc:format>image/svg+xml</dc:format>
        <dc:type
           rdf:resource="http://purl.org/dc/dcmitype/StillImage" />
        <dc:title></dc:title>
      </cc:Work>
    </rdf:RDF>
  </metadata>
  <g
     inkscape:label="Layer 1"
     inkscape:groupmode="layer"
     id="layer1"
     transform="translate(-0.67528264,-1079.501)">
    <path
       style="opacity:0.7;fill:#dcff32;fill-opacity:1;stroke:none"
       id="path3707"
       d="m 6.1104317,48.82632 c 1.7453909,0.106478 3.4917069,0.198746 5.2361733,0.319434 6.492612,0.44918 7.660154,0.675305 14.044427,0.874045 4.054056,0.126201 8.226589,-0.0037 12.267694,-0.07714 2.484797,-0.04515 4.969538,-0.09333 7.454306,-0.140001 16.299896,-0.189872 32.600694,-0.01583 48.901062,-0.0065 8.453216,-0.01415 16.906426,-0.02761 25.359656,-0.01742 0.38462,5.69e-4 0.88544,0.277186 1.15385,0.0017 0.19857,-0.203809 -0.46069,-0.3674 -0.73877,-0.427726 -0.64456,-0.139824 -1.31393,-0.118269 -1.97213,-0.160355 -0.16521,-0.01056 -0.6621,-0.0029 -0.49664,0.0025 5.36957,0.176408 3.08923,-0.03113 5.78967,0.245871 0.24564,-0.09988 0.47621,-0.251161 0.73691,-0.299634 1.25895,-0.234081 3.13913,-0.269763 4.43613,-0.167342 0.48608,0.03838 0.96696,0.129575 1.45288,0.169952 -0.25153,0.02567 1.02,-0.01881 0.72803,-0.09891 -2.03577,-0.558557 -2.70619,-0.215026 -1.49611,-0.646073 0,0 -0.12545,17.856702 -0.12545,17.856702 l 0,0 c -0.0468,0.06116 -0.0633,0.18072 -0.14026,0.18347 -1.39877,0.04999 -2.79285,-0.093 -4.18265,-0.216946 -0.56382,-0.03038 -0.98746,0.04269 -1.56568,0.09567 -1.63832,0.150121 -3.27072,0.409241 -4.92216,0.24292 -2.04581,0.06892 0.98641,-0.04837 2.72631,0.157457 0.21899,0.0259 -0.41724,0.154142 -0.63597,0.182117 -2.41969,0.30947 -1.99145,0.179303 -4.22632,0.126204 -0.38373,-0.0091 -0.76769,-7.23e-4 -1.15153,-0.0011 -8.45318,-0.0057 -16.906338,0.01347 -25.359516,0.01746 -16.246095,-0.02074 -32.493137,-0.185289 -48.738448,0.04932 -6.771207,0.115416 -13.552266,0.330956 -20.322642,0.05072 -5.31727,-0.220093 -8.843056,-0.52475 -14.1698586,-0.911669 -1.8259642,-0.132631 -3.6520752,-0.263235 -5.47811276,-0.394852 0,0 5.43514906,-17.009901 5.43514906,-17.009901 z"
       inkscape:connector-curvature="0"
       transform="translate(0,1031.1023)"
       inkscape:export-filename="/home/snap/Escritorio/folleto_2/marker2.png"
       inkscape:export-xdpi="300"
       inkscape:export-ydpi="300" />
  </g>
</svg>
