<?xml version="1.0" encoding="UTF-8" standalone="no"?>
<!-- Created with Inkscape (http://www.inkscape.org/) -->

<svg
   xmlns:dc="http://purl.org/dc/elements/1.1/"
   xmlns:cc="http://creativecommons.org/ns#"
   xmlns:rdf="http://www.w3.org/1999/02/22-rdf-syntax-ns#"
   xmlns:svg="http://www.w3.org/2000/svg"
   xmlns="http://www.w3.org/2000/svg"
   xmlns:sodipodi="http://sodipodi.sourceforge.net/DTD/sodipodi-0.dtd"
   xmlns:inkscape="http://www.inkscape.org/namespaces/inkscape"
   id="svg2"
   version="1.1"
   inkscape:version="0.48.4 r9939"
   width="750"
   height="1000"
   xml:space="preserve"
   sodipodi:docname="monster.svg"><metadata
     id="metadata8"><rdf:RDF><cc:Work
         rdf:about=""><dc:format>image/svg+xml</dc:format><dc:type
           rdf:resource="http://purl.org/dc/dcmitype/StillImage" /><dc:title></dc:title></cc:Work></rdf:RDF></metadata><defs
     id="defs6"><clipPath
       clipPathUnits="userSpaceOnUse"
       id="clipPath16"><path
         d="M 0,800 600,800 600,0 0,0 0,800 z"
         id="path18" /></clipPath></defs><sodipodi:namedview
     pagecolor="#ffffff"
     bordercolor="#666666"
     borderopacity="1"
     objecttolerance="10"
     gridtolerance="10"
     guidetolerance="10"
     inkscape:pageopacity="0"
     inkscape:pageshadow="2"
     inkscape:window-width="1920"
     inkscape:window-height="1024"
     id="namedview4"
     showgrid="false"
     inkscape:zoom="0.944"
     inkscape:cx="-38.05596"
     inkscape:cy="372.65607"
     inkscape:window-x="-2"
     inkscape:window-y="-3"
     inkscape:window-maximized="1"
     inkscape:current-layer="g10" /><g
     inkscape:groupmode="layer"
     id="layer1"
     inkscape:label="fondo"
     style="display:none"><g
       transform="matrix(1.25,0,0,-1.25,0,1000)"
       style="display:inline"
       id="g3225"><g
         transform="translate(600,11.9609)"
         id="g20"><path
           inkscape:connector-curvature="0"
           id="path22"
           style="fill:#45605c;fill-opacity:1;fill-rule:nonzero;stroke:none"
           d="m 0,0 c 0,-6.666 -5.373,-12.072 -12,-12.072 l -576,0 c -6.628,0 -12,5.406 -12,12.072 l 0,775.967 c 0,6.668 5.372,12.072 12,12.072 l 576,0 c 6.627,0 12,-5.404 12,-12.072 L 0,0 z" /></g><path
         inkscape:connector-curvature="0"
         id="path24"
         style="fill:#3d5652;fill-opacity:1;fill-rule:nonzero;stroke:none"
         d="m 481.314,0.001 -11.833,0 0,800 11.833,0 0,-800 z" /><path
         inkscape:connector-curvature="0"
         id="path26"
         style="fill:#3d5652;fill-opacity:1;fill-rule:nonzero;stroke:none"
         d="m 504.926,0.001 -11.833,0 0,800 11.833,0 0,-800 z" /><path
         inkscape:connector-curvature="0"
         id="path28"
         style="fill:#3d5652;fill-opacity:1;fill-rule:nonzero;stroke:none"
         d="m 528.568,0 -11.832,0 0,800.001 11.832,0 0,-800.001 z" /><path
         inkscape:connector-curvature="0"
         id="path30"
         style="fill:#3d5652;fill-opacity:1;fill-rule:nonzero;stroke:none"
         d="m 360.988,-1.45 -11.832,0 0,800 11.832,0 0,-800 z" /><path
         inkscape:connector-curvature="0"
         id="path32"
         style="fill:#3d5652;fill-opacity:1;fill-rule:nonzero;stroke:none"
         d="m 552.746,0.003 -11.831,0 0,800 11.831,0 0,-800 z" /><path
         inkscape:connector-curvature="0"
         id="path34"
         style="fill:#3d5652;fill-opacity:1;fill-rule:nonzero;stroke:none"
         d="m 576.357,0.003 -11.831,0 0,800 11.831,0 0,-800 z" /><path
         inkscape:connector-curvature="0"
         id="path36"
         style="fill:#3d5652;fill-opacity:1;fill-rule:nonzero;stroke:none"
         d="m 600,0.001 -11.831,0 0,800.002 11.831,0 0,-800.002 z" /><path
         inkscape:connector-curvature="0"
         id="path38"
         style="fill:#3d5652;fill-opacity:1;fill-rule:nonzero;stroke:none"
         d="m 338.734,-0.002 -11.832,0 0,800 11.832,0 0,-800 z" /><path
         inkscape:connector-curvature="0"
         id="path40"
         style="fill:#3d5652;fill-opacity:1;fill-rule:nonzero;stroke:none"
         d="m 316.731,0 -11.832,0 0,800 11.832,0 0,-800 z" /><path
         inkscape:connector-curvature="0"
         id="path42"
         style="fill:#3d5652;fill-opacity:1;fill-rule:nonzero;stroke:none"
         d="m 385.988,-0.003 -11.831,0 0,800.001 11.831,0 0,-800.001 z" /><path
         inkscape:connector-curvature="0"
         id="path44"
         style="fill:#3d5652;fill-opacity:1;fill-rule:nonzero;stroke:none"
         d="m 410.167,0 -11.832,0 0,800 11.832,0 0,-800 z" /><path
         inkscape:connector-curvature="0"
         id="path46"
         style="fill:#3d5652;fill-opacity:1;fill-rule:nonzero;stroke:none"
         d="m 433.778,0 -11.832,0 0,800 11.832,0 0,-800 z" /><path
         inkscape:connector-curvature="0"
         id="path48"
         style="fill:#3d5652;fill-opacity:1;fill-rule:nonzero;stroke:none"
         d="m 457.422,-0.002 -11.833,0 0,800.002 11.833,0 0,-800.002 z" /><path
         inkscape:connector-curvature="0"
         id="path50"
         style="fill:#3d5652;fill-opacity:1;fill-rule:nonzero;stroke:none"
         d="m 176.778,-0.002 -11.79,0 0,800 11.79,0 0,-800 z" /><path
         inkscape:connector-curvature="0"
         id="path52"
         style="fill:#3d5652;fill-opacity:1;fill-rule:nonzero;stroke:none"
         d="m 200.304,-0.002 -11.79,0 0,800 11.79,0 0,-800 z" /><path
         inkscape:connector-curvature="0"
         id="path54"
         style="fill:#3d5652;fill-opacity:1;fill-rule:nonzero;stroke:none"
         d="m 223.861,-0.003 -11.79,0 0,800.001 11.79,0 0,-800.001 z" /><path
         inkscape:connector-curvature="0"
         id="path56"
         style="fill:#3d5652;fill-opacity:1;fill-rule:nonzero;stroke:none"
         d="m 56.886,-1.453 -11.79,0 0,800 11.79,0 0,-800 z" /><path
         inkscape:connector-curvature="0"
         id="path58"
         style="fill:#3d5652;fill-opacity:1;fill-rule:nonzero;stroke:none"
         d="m 247.952,0 -11.789,0 0,800 11.789,0 0,-800 z" /><path
         inkscape:connector-curvature="0"
         id="path60"
         style="fill:#3d5652;fill-opacity:1;fill-rule:nonzero;stroke:none"
         d="m 271.478,0 -11.789,0 0,800 11.789,0 0,-800 z" /><path
         inkscape:connector-curvature="0"
         id="path62"
         style="fill:#3d5652;fill-opacity:1;fill-rule:nonzero;stroke:none"
         d="m 295.035,-0.002 -11.789,0 0,800.002 11.789,0 0,-800.002 z" /><path
         inkscape:connector-curvature="0"
         id="path64"
         style="fill:#3d5652;fill-opacity:1;fill-rule:nonzero;stroke:none"
         d="m 34.713,-0.005 -11.79,0 0,800 11.79,0 0,-800 z" /><path
         inkscape:connector-curvature="0"
         id="path66"
         style="fill:#3d5652;fill-opacity:1;fill-rule:nonzero;stroke:none"
         d="m 12.79,-0.003 -11.79,0 0,800 11.79,0 0,-800 z" /><path
         inkscape:connector-curvature="0"
         id="path68"
         style="fill:#3d5652;fill-opacity:1;fill-rule:nonzero;stroke:none"
         d="m 81.796,-0.006 -11.789,0 0,800.001 11.789,0 0,-800.001 z" /><path
         inkscape:connector-curvature="0"
         id="path70"
         style="fill:#3d5652;fill-opacity:1;fill-rule:nonzero;stroke:none"
         d="m 105.887,-0.003 -11.789,0 0,800 11.789,0 0,-800 z" /><path
         inkscape:connector-curvature="0"
         id="path72"
         style="fill:#3d5652;fill-opacity:1;fill-rule:nonzero;stroke:none"
         d="m 129.414,-0.003 -11.79,0 0,800 11.79,0 0,-800 z" /><path
         inkscape:connector-curvature="0"
         id="path74"
         style="fill:#3d5652;fill-opacity:1;fill-rule:nonzero;stroke:none"
         d="m 152.972,-0.005 -11.79,0 0,800.002 11.79,0 0,-800.002 z" /></g></g><g
     id="g10"
     inkscape:groupmode="layer"
     inkscape:label="vectorstock_56271"
     transform="matrix(1.25,0,0,-1.25,0,1000)"
     style="display:inline"><g
       id="g3509"
       transform="translate(-104.26829,129.4365)"><g
         transform="translate(521.0042,748.89911)"
         id="g100"><path
           inkscape:connector-curvature="0"
           id="path102"
           style="fill:#ffffff;fill-opacity:1;fill-rule:nonzero;stroke:none"
           d="m 0,0 -370.637,0 c -6.068,0 -10.988,-4.919 -10.988,-10.988 l 0,-167.235 c 0,-6.068 4.92,-10.987 10.988,-10.987 l 8.655,0 c 4.079,-38.79 79.833,-131.474 54.298,-87.28 -18.816,32.569 -14.342,68.106 -9.65,87.28 l 317.334,0 c 6.068,0 10.988,4.919 10.988,10.987 l 0,167.235 C 10.988,-4.919 6.068,0 0,0" /></g><g
         transform="translate(160.534,729.42491)"
         id="g104"><path
           inkscape:connector-curvature="0"
           id="path106"
           style="fill:#474747;fill-opacity:1;fill-rule:nonzero;stroke:none"
           d="m 0,0 9.634,-148.364 22.158,1.926 -9.634,56.841 33.719,3.854 -3.853,-58.768 22.158,-1.927 4.817,145.475 -22.158,5.78 0,-69.365 L 21.195,-69.365 18.305,0 0,0 z" /></g><g
         transform="translate(160.534,729.42491)"
         id="g108"><path
           inkscape:connector-curvature="0"
           id="path110"
           style="fill:none;stroke:#474747;stroke-width:1;stroke-linecap:butt;stroke-linejoin:miter;stroke-miterlimit:4;stroke-opacity:1;stroke-dasharray:none"
           d="m 0,0 9.634,-148.364 22.158,1.926 -9.634,56.841 33.719,3.854 -3.853,-58.768 22.158,-1.927 4.817,145.475 -22.158,5.78 0,-69.365 L 21.195,-69.365 18.305,0 0,0 z" /></g><g
         transform="translate(245.3133,726.53481)"
         id="g112"><path
           inkscape:connector-curvature="0"
           id="path114"
           style="fill:#474747;fill-opacity:1;fill-rule:nonzero;stroke:none"
           d="m 0,0 3.854,-141.621 74.181,-4.817 -2.889,31.792 -49.134,-1.926 -5.78,36.61 49.133,3.853 0.964,20.232 -47.207,-1.927 -4.817,38.536 51.06,-7.707 L 73.218,4.816 0,0 z" /></g><g
         transform="translate(245.3133,726.53481)"
         id="g116"><path
           inkscape:connector-curvature="0"
           id="path118"
           style="fill:none;stroke:#474747;stroke-width:1;stroke-linecap:butt;stroke-linejoin:miter;stroke-miterlimit:4;stroke-opacity:1;stroke-dasharray:none"
           d="m 0,0 3.854,-141.621 74.181,-4.817 -2.889,31.792 -49.134,-1.926 -5.78,36.61 49.133,3.853 0.964,20.232 -47.207,-1.927 -4.817,38.536 51.06,-7.707 L 73.218,4.816 0,0 z" /></g><g
         transform="translate(323.3494,724.60851)"
         id="g120"><path
           inkscape:connector-curvature="0"
           id="path122"
           style="fill:#474747;fill-opacity:1;fill-rule:nonzero;stroke:none"
           d="m 0,0 11.561,-137.767 75.146,-0.963 5.78,26.012 -57.805,-1.927 L 26.011,0 0,0 z" /></g><g
         transform="translate(323.3494,724.60851)"
         id="g124"><path
           inkscape:connector-curvature="0"
           id="path126"
           style="fill:none;stroke:#474747;stroke-width:1;stroke-linecap:butt;stroke-linejoin:miter;stroke-miterlimit:4;stroke-opacity:1;stroke-dasharray:none"
           d="m 0,0 11.561,-137.767 75.146,-0.963 5.78,26.012 -57.805,-1.927 L 26.011,0 0,0 z" /></g><g
         transform="translate(361.886,715.93811)"
         id="g128"><path
           inkscape:connector-curvature="0"
           id="path130"
           style="fill:#474747;fill-opacity:1;fill-rule:nonzero;stroke:none"
           d="M 0,0 25.048,-1.927 21.194,-84.78 68.401,-80.926 62.621,-98.268 1.926,-97.304 0,0 z" /></g><g
         transform="translate(361.886,715.93811)"
         id="g132"><path
           inkscape:connector-curvature="0"
           id="path134"
           style="fill:none;stroke:#474747;stroke-width:1;stroke-linecap:butt;stroke-linejoin:miter;stroke-miterlimit:4;stroke-opacity:1;stroke-dasharray:none"
           d="M 0,0 25.048,-1.927 21.194,-84.78 68.401,-80.926 62.621,-98.268 1.926,-97.304 0,0 z" /></g><g
         transform="translate(441.6761,600.55481)"
         id="g136"><path
           inkscape:connector-curvature="0"
           id="path138"
           style="fill:#474747;fill-opacity:1;fill-rule:nonzero;stroke:none"
           d="M 0,0 -9.188,105.145 72.479,107.187 69.416,-7.146 0,0 z" /></g><g
         transform="translate(441.6761,600.55481)"
         id="g140"><path
           inkscape:connector-curvature="0"
           id="path142"
           style="fill:none;stroke:#474747;stroke-width:1;stroke-linecap:butt;stroke-linejoin:miter;stroke-miterlimit:4;stroke-opacity:1;stroke-dasharray:none"
           d="M 0,0 -9.188,105.145 72.479,107.187 69.416,-7.146 0,0 z" /></g><g
         transform="translate(453.9261,690.38731)"
         id="g144"><path
           inkscape:connector-curvature="0"
           id="path146"
           style="fill:#ffffff;fill-opacity:1;fill-rule:nonzero;stroke:none"
           d="M 0,0 44.916,-1.021 38.792,-75.541 6.125,-71.458 0,0 z" /></g></g><g
       id="g3591"><path
         id="path78"
         d="m 272.90122,443.44509 c -4.56742,0.0711 -44.06345,-37.43716 -38.17987,-66.21672 -3.65914,-4.01357 -7.01284,-8.5653 -10.02819,-13.70265 -13.13005,-21.7053 -20.00204,-53.91035 -21.41518,-91.61254 -10.66357,-5.29734 -20.50345,-12.66768 -28.36218,-21.49172 -8.39919,-9.43263 -12.6095,-22.3024 -16.78383,-34.02697 -4.13683,-11.62046 -8.42445,-25.32158 -5.41599,-37.70143 2.184,-8.98633 9.84064,-16.30615 18.86984,-18.2383 5.97176,-1.2784 12.47248,-0.10794 16.11401,5.18634 1.99339,2.89976 2.50016,6.57574 2.44964,10.00906 -0.0934,6.40579 -0.23501,12.80776 -0.19138,19.21433 0.0819,12.17545 0.85355,24.42822 3.77014,36.28522 1.97808,8.04323 5.13199,15.68456 9.33924,22.71655 0.2078,-12.13032 0.94933,-23.74965 2.25826,-34.6968 l 163.39835,0 c 1.49097,12.46297 2.26736,25.78044 2.3348,39.74917 -0.0191,3.80153 -0.088,7.55024 -0.21051,11.25301 11.99556,7.58163 25.09575,13.31377 36.95505,21.14725 11.24383,7.42852 19.26715,18.34394 23.02275,31.29026 3.4869,12.02695 2.71679,25.25192 -2.81326,36.53402 -2.73517,5.58211 -6.64463,11.25531 -12.13335,14.39161 -4.71019,2.69001 -11.02566,2.00411 -14.54471,-2.31567 -2.98932,-3.66833 -3.73952,-8.43823 -4.21031,-13.01369 -0.46773,-4.53642 -0.8612,-9.03686 -1.55016,-13.54954 -1.50882,-9.8728 -3.80076,-19.63843 -6.85133,-29.14684 -3.73875,-11.64802 -9.34612,-25.45937 -18.37226,-35.06041 -2.07837,34.02161 -8.84778,63.02836 -20.97501,83.07709 -2.80636,4.77909 -5.9174,9.05753 -9.28182,12.86059 -0.41031,28.58878 -34.17471,70.41248 -22.65913,49.35633 7.05112,-12.89657 7.72554,-26.33818 6.83219,-36.0173 -10.98891,6.69516 -23.61066,10.01518 -37.24212,10.20044 -11.28134,-0.15234 -21.86147,-2.44428 -31.40509,-7.02357 0.5726,10.24867 3.26643,29.87714 14.90833,45.22257 2.77986,3.66468 3.32104,5.30554 2.37308,5.32031 z"
         style="fill:#3fba4e;fill-opacity:1;fill-rule:nonzero;stroke:none"
         inkscape:connector-curvature="0" /><g
         transform="matrix(1.1238906,0,0,1.1238906,318.78384,340.03084)"
         id="g80"><path
           inkscape:connector-curvature="0"
           id="path82"
           style="fill:#ffffff;fill-opacity:1;fill-rule:nonzero;stroke:none"
           d="m 0,0 c 0,-5.08 -4.551,-9.197 -10.165,-9.197 -5.613,0 -10.165,4.117 -10.165,9.197 0,5.079 4.552,9.196 10.165,9.196 C -4.551,9.196 0,5.079 0,0" /></g><g
         transform="matrix(0.97940028,0,0,0.97940028,287.34978,342.75792)"
         id="g84"><path
           inkscape:connector-curvature="0"
           id="path86"
           style="fill:#ffffff;fill-opacity:1;fill-rule:nonzero;stroke:none"
           d="m 0,0 c 0,-8.896 -7.214,-16.109 -16.11,-16.109 -8.898,0 -16.11,7.213 -16.11,16.109 0,8.897 7.212,16.11 16.11,16.11 C -7.214,16.11 0,8.897 0,0" /></g><g
         transform="matrix(0.76551112,0,0,0.76551112,246.26059,294.60592)"
         id="g88"><path
           inkscape:connector-curvature="0"
           id="path90"
           style="fill:#ffffff;fill-opacity:1;fill-rule:nonzero;stroke:none"
           d="m 0,0 6.816,-15.49 5.578,14.871 4.335,-8.675 6.817,6.195 6.195,-6.195 6.197,6.195 3.717,-9.913 8.055,12.393 3.099,-11.153 8.054,9.914 4.337,-11.154 6.817,9.913 4.957,-8.054 7.435,8.675 2.478,-14.251 6.197,14.871 8.674,-12.393 8.055,14.871 C 107.813,0.62 43.992,16.11 0,0" /></g><g
         transform="matrix(1.2268296,0,0,1.2268296,284.26684,339.23903)"
         id="g92"><path
           inkscape:connector-curvature="0"
           id="path94"
           style="fill:#1b1e1e;fill-opacity:1;fill-rule:nonzero;stroke:none"
           d="m 0,0 c 0,-2.353 -1.907,-4.26 -4.261,-4.26 -2.352,0 -4.26,1.907 -4.26,4.26 0,2.353 1.908,4.262 4.26,4.262 C -1.907,4.262 0,2.353 0,0" /></g><g
         transform="matrix(1.3538213,0,0,1.3538213,306.12485,338.55157)"
         id="g96"><path
           inkscape:connector-curvature="0"
           id="path98"
           style="fill:#1b1e1e;fill-opacity:1;fill-rule:nonzero;stroke:none"
           d="m 0,0 c 0,-1.344 -1.091,-2.435 -2.435,-2.435 -1.344,0 -2.435,1.091 -2.435,2.435 0,1.344 1.091,2.434 2.435,2.434 C -1.091,2.434 0,1.344 0,0" /></g><g
         transform="matrix(0.76551112,0,0,0.76551112,248.00994,255.81526)"
         id="g148"><path
           inkscape:connector-curvature="0"
           id="path150"
           style="fill:#ffffff;fill-opacity:1;fill-rule:nonzero;stroke:none"
           d="m 0,0 6.816,15.49 5.578,-14.871 4.335,8.675 6.817,-6.195 6.195,6.195 6.197,-6.195 3.717,9.913 8.055,-12.393 3.099,11.153 8.054,-9.914 4.337,11.154 6.817,-9.913 4.957,8.054 7.435,-8.675 2.478,14.251 6.197,-14.871 8.674,12.393 8.055,-14.871 C 107.813,-0.62 43.992,-16.11 0,0" /></g></g></g></svg>