<?xml version="1.0" encoding="UTF-8" standalone="no"?>
<!-- Created with Inkscape (http://www.inkscape.org/) -->

<svg
   xmlns:dc="http://purl.org/dc/elements/1.1/"
   xmlns:cc="http://creativecommons.org/ns#"
   xmlns:rdf="http://www.w3.org/1999/02/22-rdf-syntax-ns#"
   xmlns:svg="http://www.w3.org/2000/svg"
   xmlns="http://www.w3.org/2000/svg"
   xmlns:sodipodi="http://sodipodi.sourceforge.net/DTD/sodipodi-0.dtd"
   xmlns:inkscape="http://www.inkscape.org/namespaces/inkscape"
   width="28.890232mm"
   height="27mm"
   viewBox="0 0 102.36697 95.669291"
   id="svg2"
   version="1.1"
   inkscape:version="0.91 r13725"
   sodipodi:docname="dog.svg"
   inkscape:export-filename="/home/data/Chema/dev/deseño/anuncios/magdalena2016/dog.png"
   inkscape:export-xdpi="300.09628"
   inkscape:export-ydpi="300.09628">
  <defs
     id="defs4">
    <linearGradient
       x1="0"
       y1="0"
       x2="1"
       y2="0"
       gradientUnits="userSpaceOnUse"
       gradientTransform="matrix(-5.6283875,-8.7131653,-10.473755,6.7655487,153.00146,111.63965)"
       spreadMethod="pad"
       id="linearGradient2374">
      <stop
         style="stop-opacity:1;stop-color:#0a5c98"
         offset="0"
         id="stop2376" />
      <stop
         style="stop-opacity:1;stop-color:#0d71ba"
         offset="1"
         id="stop2378" />
    </linearGradient>
  </defs>
  <sodipodi:namedview
     id="base"
     pagecolor="#ffffff"
     bordercolor="#666666"
     borderopacity="1.0"
     inkscape:pageopacity="0.0"
     inkscape:pageshadow="2"
     inkscape:zoom="5.9860209"
     inkscape:cx="16.427045"
     inkscape:cy="51.947351"
     inkscape:document-units="px"
     inkscape:current-layer="layer1"
     showgrid="false"
     inkscape:window-width="1920"
     inkscape:window-height="1017"
     inkscape:window-x="0"
     inkscape:window-y="0"
     inkscape:window-maximized="1"
     fit-margin-top="0"
     fit-margin-left="0"
     fit-margin-right="0"
     fit-margin-bottom="0" />
  <metadata
     id="metadata7">
    <rdf:RDF>
      <cc:Work
         rdf:about="">
        <dc:format>image/svg+xml</dc:format>
        <dc:type
           rdf:resource="http://purl.org/dc/dcmitype/StillImage" />
        <dc:title></dc:title>
      </cc:Work>
    </rdf:RDF>
  </metadata>
  <g
     inkscape:label="Layer 1"
     inkscape:groupmode="layer"
     id="layer1"
     transform="translate(-234.53481,-669.15984)">
    <g
       id="g4292">
      <g
         transform="matrix(-0.50993711,0,0,-0.50993711,300.0986,746.06701)"
         id="g2314">
        <path
           inkscape:connector-curvature="0"
           id="path2316"
           style="fill:#b66f29;fill-opacity:1;fill-rule:nonzero;stroke:none"
           d="m 0,0 c 0,0 1.086,-9.783 0.314,-15.57 -0.771,-5.787 -3.589,-12.598 -3.884,-14.954 -0.239,-1.929 0.601,-5.16 3.57,-5.545 3.711,-0.485 6.846,2.411 6.846,2.411 0,0 1.806,-3.135 5.375,-3.135 2.424,0 2.968,2.894 2.968,2.894 0,0 1.01,-2.632 4.29,-2.655 3.23,-0.022 3.628,2.546 3.628,2.546 0,0 1.375,-1.844 3.799,-0.519 2.317,1.265 2.508,6.076 0.291,10.127 -2.218,4.05 -6.234,6.129 -10.222,5.209 -4.598,-1.063 -6.94,-7.489 -10.418,-6.944 -1.543,0.239 0.289,7.371 0.289,10.746 0,3.375 -1.448,13.653 -1.448,13.653 L 0,0 Z" />
      </g>
      <g
         transform="matrix(-0.50993711,0,0,-0.50993711,290.17772,758.30051)"
         id="g2318">
        <path
           inkscape:connector-curvature="0"
           id="path2320"
           style="fill:#754c24;fill-opacity:1;fill-rule:nonzero;stroke:none"
           d="m 0,0 c 0,0 3.305,-2.484 4.086,-5.605 0.664,-2.629 0,-4.829 0,-4.829 l -0.434,0.416 c 0,0 0.555,3.084 -0.347,5.147 C 2.4,-2.811 0,0 0,0" />
      </g>
      <g
         transform="matrix(-0.50993711,0,0,-0.50993711,292.15372,763.70763)"
         id="g2322">
        <path
           inkscape:connector-curvature="0"
           id="path2324"
           style="fill:#754c24;fill-opacity:1;fill-rule:nonzero;stroke:none"
           d="M 0,0 C 0,0 0.236,2.947 -0.295,4.431 -0.83,5.914 -2.85,7.276 -2.85,7.276 c 0,0 1.534,-1.891 1.914,-3.255 0.375,-1.326 0.545,-3.327 0.545,-3.327 L 0,0 Z" />
      </g>
      <g
         transform="matrix(-0.50993711,0,0,-0.50993711,281.31955,745.81505)"
         id="g2326">
        <path
           inkscape:connector-curvature="0"
           id="path2328"
           style="fill:#b66f29;fill-opacity:1;fill-rule:nonzero;stroke:none"
           d="m 0,0 c 0,0 1.348,-11.303 0.617,-16.795 -0.734,-5.491 -2.596,-8.779 -2.875,-11.017 -0.228,-1.83 -1.34,-4.653 1.479,-5.02 3.523,-0.461 7.279,0.889 7.279,0.889 0,0 1.713,-2.975 5.102,-2.975 2.3,0 2.816,2.744 2.816,2.744 0,0 0.959,-2.496 4.072,-2.519 3.067,-0.02 3.442,2.418 3.442,2.418 0,0 1.306,-1.752 3.607,-0.494 2.195,1.203 3.004,4.44 0.899,8.285 -2.108,3.845 -5.616,6.468 -9.403,5.593 -4.361,-1.007 -7.51,-6.429 -10.81,-5.914 -1.463,0.229 0.275,6.723 0.275,9.926 0,3.203 -1.375,13.231 -1.375,13.231 L 0,0 Z" />
      </g>
      <g
         transform="matrix(-0.50993711,0,0,-0.50993711,271.33793,757.92305)"
         id="g2330">
        <path
           inkscape:connector-curvature="0"
           id="path2332"
           style="fill:#754c24;fill-opacity:1;fill-rule:nonzero;stroke:none"
           d="m 0,0 c 0,0 2.027,-1.381 2.77,-4.344 0.628,-2.496 0,-4.584 0,-4.584 l -0.413,0.397 c 0,0 0.53,2.928 -0.33,4.884 C 1.17,-1.689 0,0 0,0" />
      </g>
      <g
         transform="matrix(-0.50993711,0,0,-0.50993711,273.77808,762.55731)"
         id="g2334">
        <path
           inkscape:connector-curvature="0"
           id="path2336"
           style="fill:#754c24;fill-opacity:1;fill-rule:nonzero;stroke:none"
           d="m 0,0 c 0,0 0.225,2.798 -0.281,4.207 -0.506,1.406 -1.713,2.699 -1.713,2.699 0,0 0.744,-1.795 1.107,-3.09 0.354,-1.257 0.516,-3.158 0.516,-3.158 L 0,0 Z" />
      </g>
      <g
         transform="matrix(-0.50993711,0,0,-0.50993711,266.95767,687.57963)"
         id="g2338">
        <path
           inkscape:connector-curvature="0"
           id="path2340"
           style="fill:#d27e1a;fill-opacity:1;fill-rule:nonzero;stroke:none"
           d="m 0,0 c 0,0 8.557,8.576 14.869,7.072 7.115,-1.694 4.918,-9.904 4.918,-9.904 L -0.455,-8.031 0,0 Z" />
      </g>
      <g
         transform="matrix(-0.50993711,0,0,-0.50993711,307.1371,739.47067)"
         id="g2502">
        <path
           inkscape:connector-curvature="0"
           id="path2504"
           style="fill:#1a1a1a;fill-opacity:1;fill-rule:nonzero;stroke:none"
           d="m 0,0 -1.299,5.473 c 0,0 -15.668,-6.294 -29.898,-2.395 -12.401,3.399 -20.455,16.488 -23.33,16.352 -2.873,-0.137 -6.977,-12.999 0,-21.893 6.978,-8.894 19.156,-6.295 19.431,-7.252 0.274,-0.959 -8.211,-5.2 -7.527,-6.295 0.685,-1.094 7.779,-1.429 12.822,0.958 5.924,2.806 8.524,7.39 9.483,6.704 0.957,-0.683 -6.022,-8.55 -4.789,-9.474 1.23,-0.924 6.558,1.41 9.029,4.275 3.012,3.49 4.242,7.526 4.789,7.526 0.549,0 -0.137,-4.926 0.685,-5.063 0.821,-0.137 4.12,1.816 7.868,5.816 C -0.684,-3.079 0,0 0,0" />
      </g>
      <g
         transform="matrix(-0.50993711,0,0,-0.50993711,272.72037,685.7052)"
         id="g2346">
        <path
           inkscape:connector-curvature="0"
           id="path2348"
           style="fill:#000000;fill-opacity:1;fill-rule:nonzero;stroke:none"
           d="M 0,0 C 0,0 -1.156,26.647 1.496,29.467 4.15,32.287 30.551,35.671 30.811,26.225 31.068,16.777 28.092,14.521 26.021,14.663 23.951,14.805 7.41,23.969 6.49,22.981 5.574,21.994 2.227,0 2.227,0 L 0,0 Z" />
      </g>
      <g
         transform="matrix(-0.50993711,0,0,-0.50993711,281.64825,691.95392)"
         id="g2350">
        <path
           inkscape:connector-curvature="0"
           id="path2352"
           style="fill:#333333;fill-opacity:1;fill-rule:nonzero;stroke:none"
           d="m 0,0 c 0,0 -12.559,25.9 -12.012,29.714 0.547,3.815 19.977,16.167 22.715,13.079 2.736,-3.088 4.377,-9.264 2.326,-12.059 C 10.977,27.94 -3.664,30 -4.145,27.793 -4.623,25.588 1.535,1.617 1.535,1.617 L 0,0 Z" />
      </g>
      <g
         transform="matrix(-0.50993711,0,0,-0.50993711,266.4766,723.49236)"
         id="g2342">
        <path
           inkscape:connector-curvature="0"
           id="path2344"
           style="fill:#f7931e;fill-opacity:1;fill-rule:nonzero;stroke:none"
           d="m 0,0 c 0,0 -3.432,-4.73 -3.316,-10.203 0.117,-5.474 4.58,-17.898 -4.651,-29.934 -8.39,-10.947 -31.471,-18.701 -49.258,-11.859 -17.789,6.842 -27.64,15.873 -29.283,30.65 -1.64,14.778 30.944,56.922 30.797,59.112 -0.146,2.188 -7.125,0.478 -11.365,-1.916 -0.842,-0.475 0.547,5.541 5.609,9.304 4.613,3.429 10.063,2.975 10.063,4.104 0,2.463 -8.557,1.027 -15.535,-1.026 -1.165,-0.341 2.462,7.116 9.919,9.579 8.165,2.697 13.397,-1.342 13.737,-0.342 0.699,2.052 -5.801,8.209 -13.942,8.345 -1.375,0.024 6.979,6.159 16.694,3.011 5.472,-1.772 7.799,-8.346 8.482,-8.346 0.684,0 11.067,16.312 22.555,16.974 C 3.045,78.176 0.793,65.641 0.793,65.641 l 16.555,-15.287 0.957,-4.653 c 0,0 4.16,-4.828 7.662,-6.842 4.287,-2.463 12.59,-3.42 12.59,-3.42 L 40.334,9.305 c 0,0 -7.924,-13.765 -22.395,-15.143 C 6.627,-6.916 0,0 0,0" />
      </g>
      <g
         style="fill:#ebebeb;fill-opacity:1"
         id="g4990"
         transform="matrix(-0.50993711,0,0,-0.50993711,298.39976,732.90479)">
        <path
           d="m 0,0 84.723,-54.736 c 8.189,0.65 15.42,11.842 12.644,19.572 L 12.646,19.569 C 15.418,11.838 8.191,0.648 0,0"
           style="fill:#ebebeb;fill-opacity:1;fill-rule:nonzero;stroke:none"
           id="path4992"
           inkscape:connector-curvature="0" />
      </g>
      <g
         style="fill:#ebebeb;fill-opacity:1"
         id="g5000"
         transform="matrix(-0.50993711,0,0,-0.50993711,305.00906,728.63606)">
        <path
           d="m 0,0 c 2.203,-1.423 4.406,-2.845 6.609,-4.266 l 13.811,-8.926 c 8.191,0.649 15.42,11.84 12.644,19.571 l -13.808,8.922 c -2.205,1.426 -4.41,2.848 -6.611,4.273 C 15.42,11.843 8.191,0.65 0,0"
           style="fill:#ebebeb;fill-opacity:1;fill-rule:nonzero;stroke:none"
           id="path5002"
           inkscape:connector-curvature="0" />
      </g>
      <g
         style="fill:#ebebeb;fill-opacity:1"
         id="g5020"
         transform="matrix(-0.50993711,0,0,-0.50993711,311.52967,724.4231)">
        <path
           d="m 0,0 c 2.205,-1.422 4.408,-2.848 6.613,-4.271 l 6.35,-4.103 c 8.189,0.648 15.418,11.839 12.646,19.569 l -6.355,4.106 c -2.201,1.424 -4.406,2.847 -6.609,4.271 C 15.422,11.84 8.191,0.646 0,0"
           style="fill:#ebebeb;fill-opacity:1;fill-rule:nonzero;stroke:none"
           id="path5022"
           inkscape:connector-curvature="0" />
      </g>
      <g
         style="fill:#c8c8c8;fill-opacity:1"
         id="g5024"
         transform="matrix(-0.50993711,0,0,-0.50993711,311.17409,717.57883)">
        <path
           d="m 0,0 c -3.49,-5.406 -4.111,-11.214 -1.393,-12.974 2.737,-1.766 7.776,1.189 11.266,6.595 3.49,5.403 4.115,11.21 1.381,12.978 C 8.529,8.357 3.492,5.403 0,0"
           style="fill:#c8c8c8;fill-opacity:1;fill-rule:nonzero;stroke:none"
           id="path5026"
           inkscape:connector-curvature="0" />
      </g>
      <g
         transform="matrix(-0.50993711,0,0,-0.50993711,254.0479,693.27858)"
         id="g2442">
        <path
           inkscape:connector-curvature="0"
           id="path2444"
           style="fill:#cccccc;fill-opacity:1;fill-rule:nonzero;stroke:none"
           d="m 0,0 c 0,-6.171 -5.006,-11.176 -11.176,-11.176 -6.172,0 -11.176,5.005 -11.176,11.176 0,6.173 5.004,11.176 11.176,11.176 C -5.006,11.176 0,6.173 0,0" />
      </g>
      <g
         transform="matrix(-0.50993711,0,0,-0.50993711,257.56065,695.51052)"
         id="g2446">
        <path
           inkscape:connector-curvature="0"
           id="path2448"
           style="fill:#000000;fill-opacity:1;fill-rule:nonzero;stroke:none"
           d="m 0,0 c 0,-1.359 -1.104,-2.463 -2.463,-2.463 -1.359,0 -2.463,1.104 -2.463,2.463 0,1.359 1.104,2.463 2.463,2.463 C -1.104,2.463 0,1.359 0,0" />
      </g>
      <g
         transform="matrix(-0.50993711,0,0,-0.50993711,263.19291,695.94229)"
         id="g2450">
        <path
           inkscape:connector-curvature="0"
           id="path2452"
           style="fill:#ffffff;fill-opacity:1;fill-rule:nonzero;stroke:none"
           d="m 0,0 c 0,-8.163 -6.617,-14.778 -14.777,-14.778 -8.164,0 -14.778,6.615 -14.778,14.778 0,8.161 6.614,14.776 14.778,14.776 C -6.617,14.776 0,8.161 0,0" />
      </g>
      <g
         transform="matrix(-0.50993711,0,0,-0.50993711,264.18887,697.04829)"
         id="g2454">
        <path
           inkscape:connector-curvature="0"
           id="path2456"
           style="fill:#000000;fill-opacity:1;fill-rule:nonzero;stroke:none"
           d="m 0,0 c 0,-2.039 -1.654,-3.694 -3.693,-3.694 -2.039,0 -3.696,1.655 -3.696,3.694 0,2.039 1.657,3.694 3.696,3.694 C -1.654,3.694 0,2.039 0,0" />
      </g>
      <g
         transform="matrix(-0.50993711,0,0,-0.50993711,271.00428,705.30489)"
         id="g2458">
        <path
           inkscape:connector-curvature="0"
           id="path2460"
           style="fill:#f7931e;fill-opacity:1;fill-rule:nonzero;stroke:none"
           d="m 0,0 c 0,0 0.162,4.271 3.033,7.846 4.367,5.435 20.283,10.13 22.92,8.344 2.016,-1.366 1.969,-5.689 1.508,-6.469 C 27,8.94 0,0 0,0" />
      </g>
      <g
         transform="matrix(-0.50993711,0,0,-0.50993711,234.53481,712.74681)"
         id="g2462">
        <path
           inkscape:connector-curvature="0"
           id="path2464"
           style="fill:#000000;fill-opacity:1;fill-rule:nonzero;stroke:none"
           d="m 0,0 c 0,-10.883 -8.332,-19.704 -18.609,-19.704 -10.278,0 -18.61,8.821 -18.61,19.704 0,10.882 8.332,19.703 18.61,19.703 C -8.332,19.703 0,10.882 0,0" />
      </g>
      <g
         transform="matrix(-0.50993711,0,0,-0.50993711,241.82135,706.0987)"
         id="g2466">
        <path
           inkscape:connector-curvature="0"
           id="path2468"
           style="fill:#333333;fill-opacity:1;fill-rule:nonzero;stroke:none"
           d="m 0,0 c 1.131,-2.137 -1.363,-5.676 -5.57,-7.901 -4.209,-2.227 -8.537,-2.298 -9.668,-0.162 -1.133,2.137 1.363,5.676 5.57,7.903 C -5.457,2.064 -1.131,2.138 0,0" />
      </g>
      <g
         transform="matrix(-0.50993711,0,0,-0.50993711,278.20118,714.19196)"
         id="g2470">
        <path
           inkscape:connector-curvature="0"
           id="path2472"
           style="fill:#de2321;fill-opacity:1;fill-rule:nonzero;stroke:none"
           d="m 0,0 c 0,0 -4.873,-0.619 -9.709,-5.09 -4.568,-4.224 -7.543,-11.83 -3.191,-15.507 5.291,-4.47 10.482,-0.03 11.728,2.242 3.777,6.88 9.436,11.989 9.436,11.989 L 0,0 Z" />
      </g>
      <g
         transform="matrix(-0.50993711,0,0,-0.50993711,276.13552,715.90403)"
         id="g2474">
        <path
           inkscape:connector-curvature="0"
           id="path2476"
           style="fill:#b31a17;fill-opacity:1;fill-rule:nonzero;stroke:none"
           d="m 0,0 c 0,0 -3.266,-0.438 -6.529,-3.125 -2.492,-2.05 -4.735,-5.113 -3.858,-6.048 0.877,-0.93 2.541,3.099 4.961,5.104 3.037,2.508 6.416,3.542 6.416,3.542 L 0,0 Z" />
      </g>
      <g
         transform="matrix(-0.50993711,0,0,-0.50993711,272.17755,719.57818)"
         id="g2478">
        <path
           inkscape:connector-curvature="0"
           id="path2480"
           style="fill:#000000;fill-opacity:1;fill-rule:nonzero;stroke:none"
           d="M 0,0 C -0.289,0 -0.576,0.113 -0.791,0.338 -0.82,0.369 -3.82,3.492 -7.83,6.31 c -3.195,2.248 -7.756,4.253 -7.801,4.272 -0.553,0.242 -0.808,0.888 -0.564,1.441 0.242,0.555 0.886,0.811 1.441,0.565 0.193,-0.084 4.752,-2.307 7.983,-4.881 C -2.592,4.379 0.271,0 0,0" />
      </g>
      <g
         transform="matrix(-0.50993711,0,0,-0.50993711,297.26309,717.65097)"
         id="g2482">
        <path
           inkscape:connector-curvature="0"
           id="path2484"
           style="fill:#b66f29;fill-opacity:1;fill-rule:nonzero;stroke:none"
           d="m 0,0 c 0,0 -6.521,-9.814 -6.842,-16.107 -0.287,-5.684 1.916,-10.262 1.369,-11.905 -0.547,-1.642 -5.882,0.319 -8.345,-2.326 -1.985,-2.129 -2.188,-8.203 1.914,-8.027 4.287,0.181 5.338,6.521 7.388,5.291 2.053,-1.233 -2.115,-5.098 -1.504,-8.073 0.774,-3.773 5.518,-5.885 7.737,-2.052 1.722,2.975 -2.127,7.525 -1.031,8.072 1.093,0.547 3.261,-4.637 6.328,-5.746 3.406,-1.233 5.566,2.1 4.472,6.205 -1.095,4.105 -6.97,1.866 -9.34,5.15 -2.21,3.069 -3.22,7.393 -2.283,13.866 1.004,6.932 4.766,13.83 4.766,13.83 L 0,0 Z" />
      </g>
      <g
         transform="matrix(-0.50993711,0,0,-0.50993711,279.92523,746.51821)"
         id="g2486">
        <path
           inkscape:connector-curvature="0"
           id="path2488"
           style="fill:#754c24;fill-opacity:1;fill-rule:nonzero;stroke:none"
           d="m 0,0 c 0,-1.084 -0.93,-1.962 -2.078,-1.962 -1.147,0 -2.078,0.878 -2.078,1.962 0,1.084 0.931,1.963 2.078,1.963 C -0.93,1.963 0,1.084 0,0" />
      </g>
      <g
         transform="matrix(-0.50993711,0,0,-0.50993711,268.20962,746.13377)"
         id="g2490">
        <path
           inkscape:connector-curvature="0"
           id="path2492"
           style="fill:#b66f29;fill-opacity:1;fill-rule:nonzero;stroke:none"
           d="m 0,0 c 1.762,-1.639 1.256,-5.051 -1.135,-7.622 -2.39,-2.571 -5.756,-3.327 -7.519,-1.691 -1.762,1.637 -1.252,5.049 1.138,7.622 C -5.129,0.881 -1.764,1.637 0,0" />
      </g>
      <g
         transform="matrix(-0.50993711,0,0,-0.50993711,264.88504,749.0584)"
         id="g2494">
        <path
           inkscape:connector-curvature="0"
           id="path2496"
           style="fill:#b66f29;fill-opacity:1;fill-rule:nonzero;stroke:none"
           d="M 0,0 C 1.447,-1.669 0.475,-4.886 -2.176,-7.188 -4.828,-9.49 -8.15,-10.003 -9.6,-8.336 c -1.447,1.667 -0.474,4.886 2.176,7.189 C -4.771,1.153 -1.449,1.667 0,0" />
      </g>
      <g
         transform="matrix(-0.50993711,0,0,-0.50993711,262.03158,751.74206)"
         id="g2498">
        <path
           inkscape:connector-curvature="0"
           id="path2500"
           style="fill:#b66f29;fill-opacity:1;fill-rule:nonzero;stroke:none"
           d="m 0,0 c 1.316,-1.52 0.238,-4.615 -2.412,-6.918 -2.651,-2.301 -5.869,-2.935 -7.188,-1.418 -1.318,1.518 -0.24,4.615 2.412,6.918 C -4.537,0.883 -1.32,1.518 0,0" />
      </g>
    </g>
  </g>
  <g
     inkscape:groupmode="layer"
     id="layer2"
     inkscape:label="pencil"
     style="display:none"
     transform="translate(7.0663152e-6,-138.8432)">
    <g
       id="g4715"
       transform="matrix(-1,0,0,1,485.46521,-530.31664)">
      <g
         transform="matrix(1.25,0,0,-1.25,454.58383,758.28364)"
         id="g2354">
        <path
           inkscape:connector-curvature="0"
           id="path2356"
           style="fill:#c69c6d;fill-opacity:1;fill-rule:nonzero;stroke:none"
           d="M 0,0 C 4.486,1.014 6.467,3.656 5.629,8.713 L -10.846,27.053 -23.49,7.48 0,0 Z" />
      </g>
      <g
         transform="matrix(1.25,0,0,-1.25,319.3177,680.51264)"
         id="g2358">
        <path
           inkscape:connector-curvature="0"
           id="path2360"
           style="fill:#0071bc;fill-opacity:1;fill-rule:nonzero;stroke:none"
           d="m 0,0 84.723,-54.736 c 8.189,0.65 15.42,11.842 12.644,19.572 L 12.646,19.569 C 15.418,11.838 8.191,0.648 0,0" />
      </g>
      <g
         transform="matrix(1.25,0,0,-1.25,279.5667,892.88452)"
         id="g2370">
        <g
           id="g2372">
          <path
             inkscape:connector-curvature="0"
             id="path2380"
             style="fill:url(#linearGradient2374);stroke:none"
             d="m 140.014,107.68 16.566,-5.274 c 0,0 0.84,-0.055 0.965,0.12 l 0,0 c 0.109,0.158 -0.282,0.93 -0.282,0.93 l 0,0 -11.62,12.937 c 0.453,-4.32 -1.526,-7.525 -5.629,-8.713" />
        </g>
      </g>
      <g
         transform="matrix(1.25,0,0,-1.25,303.11645,670.04877)"
         id="g2390">
        <path
           inkscape:connector-curvature="0"
           id="path2392"
           style="fill:#b3b3b3;fill-opacity:1;fill-rule:nonzero;stroke:none"
           d="m 0,0 c 2.203,-1.423 4.406,-2.845 6.609,-4.266 l 13.811,-8.926 c 8.191,0.649 15.42,11.84 12.644,19.571 l -13.808,8.922 c -2.205,1.426 -4.41,2.848 -6.611,4.273 C 15.42,11.843 8.191,0.65 0,0" />
      </g>
      <g
         transform="matrix(1.25,0,0,-1.25,309.9427,674.45552)"
         id="g2394">
        <path
           inkscape:connector-curvature="0"
           id="path2396"
           style="fill:#cccccc;fill-opacity:1;fill-rule:nonzero;stroke:none"
           d="m 0,0 1.098,-0.709 c 8.189,0.648 15.42,11.836 12.644,19.57 L 12.641,19.57 C 15.418,11.84 8.188,0.648 0,0" />
      </g>
      <g
         transform="matrix(1.25,0,0,-1.25,307.34507,672.77827)"
         id="g2398">
        <path
           inkscape:connector-curvature="0"
           id="path2400"
           style="fill:#cccccc;fill-opacity:1;fill-rule:nonzero;stroke:none"
           d="m 0,0 1.098,-0.71 c 8.193,0.647 15.42,11.837 12.644,19.572 l -1.101,0.71 C 15.418,11.839 8.188,0.648 0,0" />
      </g>
      <g
         transform="matrix(1.25,0,0,-1.25,324.76445,684.03314)"
         id="g2402">
        <path
           inkscape:connector-curvature="0"
           id="path2404"
           style="fill:#cccccc;fill-opacity:1;fill-rule:nonzero;stroke:none"
           d="M 0,0 1.098,-0.707 C 9.291,-0.059 16.52,11.127 13.744,18.86 l -1.101,0.712 C 15.42,11.84 8.189,0.648 0,0" />
      </g>
      <g
         transform="matrix(1.25,0,0,-1.25,322.1692,682.35352)"
         id="g2406">
        <path
           inkscape:connector-curvature="0"
           id="path2408"
           style="fill:#cccccc;fill-opacity:1;fill-rule:nonzero;stroke:none"
           d="m 0,0 1.098,-0.712 c 8.191,0.65 15.42,11.841 12.644,19.573 l -1.101,0.711 C 15.418,11.839 8.188,0.646 0,0" />
      </g>
      <g
         transform="matrix(1.25,0,0,-1.25,287.13258,659.72164)"
         id="g2410">
        <path
           inkscape:connector-curvature="0"
           id="path2412"
           style="fill:#cccccc;fill-opacity:1;fill-rule:nonzero;stroke:none"
           d="m 0,0 c 2.205,-1.422 4.408,-2.848 6.613,-4.271 l 6.35,-4.103 c 8.189,0.648 15.418,11.839 12.646,19.569 l -6.355,4.106 c -2.201,1.424 -4.406,2.847 -6.609,4.271 C 15.422,11.84 8.191,0.646 0,0" />
      </g>
      <g
         transform="matrix(1.25,0,0,-1.25,288.0042,642.94439)"
         id="g2414">
        <path
           inkscape:connector-curvature="0"
           id="path2416"
           style="fill:#e6e6e6;fill-opacity:1;fill-rule:nonzero;stroke:none"
           d="m 0,0 c -3.49,-5.406 -4.111,-11.214 -1.393,-12.974 2.737,-1.766 7.776,1.189 11.266,6.595 3.49,5.403 4.115,11.21 1.381,12.978 C 8.529,8.357 3.492,5.403 0,0" />
      </g>
      <g
         transform="matrix(1.25,0,0,-1.25,324.7767,652.01414)"
         id="g2418">
        <path
           inkscape:connector-curvature="0"
           id="path2420"
           style="fill:#999999;fill-opacity:1;fill-rule:nonzero;stroke:none"
           d="M 0,0 C 0.322,0.506 1.324,0.439 2.23,-0.148 3.137,-0.732 3.607,-1.615 3.281,-2.119 2.957,-2.623 1.957,-2.557 1.053,-1.971 0.143,-1.384 -0.324,-0.502 0,0" />
      </g>
      <g
         transform="matrix(1.25,0,0,-1.25,336.9397,662.13139)"
         id="g2422">
        <path
           inkscape:connector-curvature="0"
           id="path2424"
           style="fill:#999999;fill-opacity:1;fill-rule:nonzero;stroke:none"
           d="M 0,0 C 0.326,0.5 1.322,0.436 2.232,-0.152 3.139,-0.738 3.609,-1.619 3.285,-2.122 2.959,-2.627 1.961,-2.561 1.053,-1.977 0.145,-1.389 -0.322,-0.506 0,0" />
      </g>
      <g
         transform="matrix(1.25,0,0,-1.25,323.7537,679.90239)"
         id="g2426">
        <path
           inkscape:connector-curvature="0"
           id="path2428"
           style="fill:#999999;fill-opacity:1;fill-rule:nonzero;stroke:none"
           d="M 0,0 C 0.322,0.503 1.32,0.438 2.23,-0.15 3.137,-0.734 3.609,-1.621 3.281,-2.121 2.957,-2.625 1.959,-2.559 1.051,-1.975 0.143,-1.387 -0.326,-0.502 0,0" />
      </g>
      <g
         transform="matrix(1.25,0,0,-1.25,310.89233,671.12552)"
         id="g2430">
        <path
           inkscape:connector-curvature="0"
           id="path2432"
           style="fill:#999999;fill-opacity:1;fill-rule:nonzero;stroke:none"
           d="M 0,0 C 0.326,0.502 1.324,0.438 2.234,-0.148 3.139,-0.734 3.609,-1.621 3.283,-2.121 2.957,-2.623 1.959,-2.559 1.053,-1.974 0.146,-1.385 -0.324,-0.502 0,0" />
      </g>
      <g
         transform="matrix(1.25,0,0,-1.25,317.76495,663.78902)"
         id="g2434">
        <path
           inkscape:connector-curvature="0"
           id="path2436"
           style="fill:#999999;fill-opacity:1;fill-rule:nonzero;stroke:none"
           d="M 0,0 C 0.436,0.67 1.52,0.74 2.428,0.152 3.334,-0.433 3.717,-1.449 3.285,-2.122 2.852,-2.793 1.764,-2.863 0.857,-2.279 -0.049,-1.691 -0.432,-0.674 0,0" />
      </g>
      <g
         transform="matrix(1.25,0,0,-1.25,333.13845,673.72064)"
         id="g2438">
        <path
           inkscape:connector-curvature="0"
           id="path2440"
           style="fill:#999999;fill-opacity:1;fill-rule:nonzero;stroke:none"
           d="M 0,0 C 0.432,0.67 1.518,0.74 2.426,0.154 3.332,-0.43 3.715,-1.447 3.283,-2.117 2.848,-2.791 1.762,-2.861 0.855,-2.277 -0.053,-1.689 -0.434,-0.672 0,0" />
      </g>
    </g>
  </g>
</svg>
