<?xml version="1.0" encoding="UTF-8" standalone="no"?>
<!-- Created with Inkscape (http://www.inkscape.org/) -->

<svg
   xmlns:dc="http://purl.org/dc/elements/1.1/"
   xmlns:cc="http://creativecommons.org/ns#"
   xmlns:rdf="http://www.w3.org/1999/02/22-rdf-syntax-ns#"
   xmlns:svg="http://www.w3.org/2000/svg"
   xmlns="http://www.w3.org/2000/svg"
   xmlns:sodipodi="http://sodipodi.sourceforge.net/DTD/sodipodi-0.dtd"
   xmlns:inkscape="http://www.inkscape.org/namespaces/inkscape"
   id="svg2"
   version="1.1"
   inkscape:version="0.48.5 r10040"
   width="281.13589"
   height="159.44882"
   xml:space="preserve"
   sodipodi:docname="dog.svg"
   inkscape:export-filename="/home/datos/dev/deseño/Snap/CARTEL2/dog.png"
   inkscape:export-xdpi="300"
   inkscape:export-ydpi="300"><metadata
     id="metadata8"><rdf:RDF><cc:Work
         rdf:about=""><dc:format>image/svg+xml</dc:format><dc:type
           rdf:resource="http://purl.org/dc/dcmitype/StillImage" /><dc:title></dc:title></cc:Work></rdf:RDF></metadata><defs
     id="defs6"><clipPath
       clipPathUnits="userSpaceOnUse"
       id="clipPath18"><path
         d="M 0,800 600,800 600,0 0,0 0,800 z"
         id="path20"
         inkscape:connector-curvature="0" /></clipPath></defs><sodipodi:namedview
     pagecolor="#ffffff"
     bordercolor="#666666"
     borderopacity="1"
     objecttolerance="10"
     gridtolerance="10"
     guidetolerance="10"
     inkscape:pageopacity="0"
     inkscape:pageshadow="2"
     inkscape:window-width="1868"
     inkscape:window-height="1060"
     id="namedview4"
     showgrid="false"
     inkscape:zoom="0.944"
     inkscape:cx="282.59747"
     inkscape:cy="50.441784"
     inkscape:window-x="50"
     inkscape:window-y="-3"
     inkscape:window-maximized="1"
     inkscape:current-layer="g10"
     fit-margin-top="0"
     fit-margin-left="0"
     fit-margin-right="0"
     fit-margin-bottom="0"
     units="mm" /><g
     id="g10"
     inkscape:groupmode="layer"
     inkscape:label="vectorstock_432614"
     transform="matrix(1.25,0,0,-1.25,-389.68704,-276.73598)"><g
       id="g7482"
       transform="matrix(1.0678599,0,0,1.0678599,-21.155332,23.679595)"
       inkscape:export-filename="/home/datos/Chema/dev/deseño/carteis/CARTEL4/dog.png"
       inkscape:export-xdpi="300"
       inkscape:export-ydpi="300"><path
         d="m 365.13531,-347.28598 -3.072,-1.329 c 0,0 -36.872,-0.749 -40.724,0 -4.488,0.876 -8.691,7.176 -9.414,12.236 -0.723,5.06 0.86,11.26 3.39,11.864 2.53,0.601 5.151,-4.338 6.145,-9.399 0.714,-3.637 0,-9.879 0.723,-10.363 0.723,-0.479 42.952,-3.009 42.952,-3.009"
         style="fill:#000000;fill-opacity:1;fill-rule:nonzero;stroke:none"
         id="path240"
         inkscape:connector-curvature="0" /><path
         d="m 368.00441,-302.80838 -3.072,-1.325 c 0,0 -36.872,-0.751 -40.724,0 -4.488,0.872 -8.691,7.174 -9.414,12.234 -0.723,5.061 0.86,11.261 3.39,11.862 2.53,0.603 5.151,-4.338 6.145,-9.398 0.715,-3.636 0,-9.882 0.723,-10.36 0.723,-0.483 42.952,-3.013 42.952,-3.013"
         style="fill:#000000;fill-opacity:1;fill-rule:nonzero;stroke:none"
         id="path244"
         inkscape:connector-curvature="0" /><path
         d="m 376.76221,-284.52718 c 0,-6.421 -5.206,-11.627 -11.627,-11.627 -6.421,0 -11.627,5.206 -11.627,11.627 0,6.421 5.206,11.626 11.627,11.626 6.421,0 11.627,-5.205 11.627,-11.626"
         style="fill:#cccccc;fill-opacity:1;fill-rule:nonzero;stroke:none"
         id="path248"
         inkscape:connector-curvature="0" /><path
         d="m 366.33251,-278.86018 c 0,-2.074 -1.684,-3.76 -3.762,-3.76 -2.077,0 -3.761,1.686 -3.761,3.76 0,2.079 1.684,3.762 3.761,3.762 2.078,0 3.762,-1.683 3.762,-3.762"
         style="fill:#000000;fill-opacity:1;fill-rule:nonzero;stroke:none"
         id="path252"
         inkscape:connector-curvature="0" /><path
         d="m 467.39551,-346.65508 2.862,-1.96 26.16,0 10.843,14.87 c 0,0 4.19,-8.554 7.984,-6.386 3.796,2.168 -3.554,8.346 -3.554,8.346 0,0 10.209,-2.711 10.662,0.814 0.451,3.524 -10.572,1.987 -10.572,1.987 0,0 10.21,3.705 7.77,6.598 -2.439,2.889 -12.47,-4.706 -12.47,-4.706 0,0 -6.787,-15.696 -13.36,-15.86 -1.205,-0.029 -2.412,-0.052 -3.584,-0.058 -8.764,-0.06 -20.91,1.184 -20.91,1.184 l -1.831,-4.829 z"
         style="fill:#b66f29;fill-opacity:1;fill-rule:nonzero;stroke:none"
         id="path256"
         inkscape:connector-curvature="0" /><path
         d="m 453.55181,-328.45398 2.863,-1.96 26.16,0 10.843,14.868 c 0,0 4.188,-8.554 7.983,-6.384 3.796,2.168 -3.554,8.344 -3.554,8.344 0,0 10.213,-2.711 10.662,0.814 0.453,3.522 -10.571,1.987 -10.571,1.987 0,0 10.213,3.705 7.769,6.598 -2.438,2.891 -12.468,-4.704 -12.468,-4.704 0,0 -6.789,-15.698 -13.362,-15.862 -1.204,-0.029 -2.411,-0.05 -3.583,-0.06 -8.765,-0.058 -20.91,1.188 -20.91,1.188 l -1.832,-4.829 z"
         style="fill:#855117;fill-opacity:1;fill-rule:nonzero;stroke:none"
         id="path260"
         inkscape:connector-curvature="0" /><path
         d="m 458.20901,-298.73418 c -19.277,10.845 -44.097,6.506 -44.097,6.506 1.399,39.133 -34.699,45.544 -34.699,45.544 l -12.289,-7.953 c 0,0 8.714,-10.281 3.374,-24.697 -4.82,-13.012 -25.785,-21.568 -25.785,-21.568 0,0 13.013,-8.916 16.627,-22.167 3.615,-13.256 0.723,-25.546 0.723,-25.546 l 108.195,0 c 0,0 7.229,39.036 -12.049,49.881"
         style="fill:#f7931e;fill-opacity:1;fill-rule:nonzero;stroke:none"
         id="path264"
         inkscape:connector-curvature="0" /><path
         d="m 379.43261,-244.45488 c 0,-8.262 -6.698,-14.959 -14.96,-14.959 -8.262,0 -14.96,6.697 -14.96,14.959 0,8.263 6.698,14.96 14.96,14.96 8.262,0 14.96,-6.697 14.96,-14.96"
         style="fill:#000000;fill-opacity:1;fill-rule:nonzero;stroke:none"
         id="path268"
         inkscape:connector-curvature="0" /><path
         d="m 374.04641,-242.68338 c 0,-6.354 -5.152,-11.506 -11.506,-11.506 -6.355,0 -11.507,5.152 -11.507,11.506 0,6.354 5.152,11.508 11.507,11.508 6.354,0 11.506,-5.154 11.506,-11.508"
         style="fill:#333333;fill-opacity:1;fill-rule:nonzero;stroke:none"
         id="path272"
         inkscape:connector-curvature="0" /><path
         d="m 389.23241,-324.15508 c -0.296,0 -0.573,0.183 -0.679,0.477 -0.136,0.374 0.057,0.79 0.432,0.927 0.133,0.046 13.331,4.923 20.035,14.752 4.868,7.134 5.092,15.771 5.092,15.771 l 1.438,0.191 c -0.006,-0.366 -0.216,-9.277 -5.336,-16.778 -6.972,-10.22 -20.177,-15.093 -20.735,-15.297 -0.082,-0.028 -0.165,-0.043 -0.247,-0.043"
         style="fill:#000000;fill-opacity:1;fill-rule:nonzero;stroke:none"
         id="path276"
         inkscape:connector-curvature="0" /><path
         d="m 390.49761,-293.06818 c 0,-6.789 -5.502,-12.291 -12.29,-12.291 -6.786,0 -12.289,5.502 -12.289,12.291 0,6.784 5.503,12.288 12.289,12.288 6.788,0 12.29,-5.504 12.29,-12.288"
         style="fill:#ffffff;fill-opacity:1;fill-rule:nonzero;stroke:none"
         id="path280"
         inkscape:connector-curvature="0" /><path
         d="m 379.47271,-287.07598 c 0,-2.197 -1.78,-3.977 -3.976,-3.977 -2.195,0 -3.976,1.78 -3.976,3.977 0,2.192 1.781,3.976 3.976,3.976 2.196,0 3.976,-1.784 3.976,-3.976"
         style="fill:#000000;fill-opacity:1;fill-rule:nonzero;stroke:none"
         id="path284"
         inkscape:connector-curvature="0" /><path
         d="m 415.25881,-339.41288 c -1.611,1.315 -0.424,3.285 -0.424,3.285 l 30.499,28.555 c 0,0 -2.41,7.062 1.326,8.749 3.736,1.685 3.209,-7.222 3.209,-7.222 0,0 5.828,5.293 7.635,2.402 1.808,-2.893 -4.7,-5.904 -4.7,-5.904 0,0 7.186,0.125 6.223,-3.807 -1.283,-5.229 -10.32,0.903 -10.32,0.903 l -30.242,-27.29 c 0,0 -1.352,-1.186 -3.206,0.329"
         style="fill:#b66f29;fill-opacity:1;fill-rule:nonzero;stroke:none"
         id="path288"
         inkscape:connector-curvature="0" /><path
         d="m 421.94141,-287.86308 c 2.354,1.529 10.538,-7.257 6.323,-9.269 -4.214,-2.01 -8.674,7.742 -6.323,9.269"
         style="fill:#b66f29;fill-opacity:1;fill-rule:nonzero;stroke:none"
         id="path292"
         inkscape:connector-curvature="0" /><path
         d="m 429.13971,-284.65608 c 2.618,1.005 8.802,-9.286 4.263,-10.381 -4.54,-1.095 -6.881,9.371 -4.263,10.381"
         style="fill:#b66f29;fill-opacity:1;fill-rule:nonzero;stroke:none"
         id="path296"
         inkscape:connector-curvature="0" /><path
         d="m 436.68071,-284.33578 c 2.749,0.56 7.14,-10.616 2.481,-10.942 -4.658,-0.325 -5.229,10.384 -2.481,10.942"
         style="fill:#b66f29;fill-opacity:1;fill-rule:nonzero;stroke:none"
         id="path300"
         inkscape:connector-curvature="0" /></g></g></svg>