<?xml version="1.0" encoding="UTF-8" standalone="no"?>
<svg
   xmlns:dc="http://purl.org/dc/elements/1.1/"
   xmlns:cc="http://creativecommons.org/ns#"
   xmlns:rdf="http://www.w3.org/1999/02/22-rdf-syntax-ns#"
   xmlns:svg="http://www.w3.org/2000/svg"
   xmlns="http://www.w3.org/2000/svg"
   xmlns:sodipodi="http://sodipodi.sourceforge.net/DTD/sodipodi-0.dtd"
   xmlns:inkscape="http://www.inkscape.org/namespaces/inkscape"
   viewBox="0 0 60.000024 30"
   width="1200.0005"
   height="600"
   id="svg3885"
   version="1.1"
   inkscape:version="0.48.4 r9939"
   sodipodi:docname="flag.svg"
   inkscape:export-filename="/home/datos/dev/deseño/snap/flag-0.png"
   inkscape:export-xdpi="90"
   inkscape:export-ydpi="90">
  <metadata
     id="metadata3904">
    <rdf:RDF>
      <cc:Work
         rdf:about="">
        <dc:format>image/svg+xml</dc:format>
        <dc:type
           rdf:resource="http://purl.org/dc/dcmitype/StillImage" />
        <dc:title />
      </cc:Work>
    </rdf:RDF>
  </metadata>
  <defs
     id="defs3902" />
  <sodipodi:namedview
     pagecolor="#ffffff"
     bordercolor="#666666"
     borderopacity="1"
     objecttolerance="10"
     gridtolerance="10"
     guidetolerance="10"
     inkscape:pageopacity="0"
     inkscape:pageshadow="2"
     inkscape:window-width="1920"
     inkscape:window-height="1024"
     id="namedview3900"
     showgrid="false"
     inkscape:zoom="1"
     inkscape:cx="552.54642"
     inkscape:cy="281.1792"
     inkscape:window-x="-2"
     inkscape:window-y="-3"
     inkscape:window-maximized="1"
     inkscape:current-layer="layer4"
     inkscape:snap-bbox="true"
     inkscape:snap-nodes="false"
     inkscape:bbox-nodes="false"
     inkscape:snap-bbox-midpoints="false"
     inkscape:bbox-paths="false"
     inkscape:snap-global="true"
     showborder="true"
     inkscape:showpageshadow="false"
     fit-margin-top="0"
     fit-margin-left="0"
     fit-margin-right="0"
     fit-margin-bottom="0">
    <inkscape:grid
       type="xygrid"
       id="grid6123"
       empspacing="5"
       visible="true"
       enabled="true"
       snapvisiblegridlinesonly="true"
       spacingx="10px"
       spacingy="10px" />
  </sodipodi:namedview>
  <clipPath
     id="t">
    <path
       d="m 30,15 h 30 v 15 z m 0,0 V 30 H 0 z m 0,0 H 0 V 0 z m 0,0 V 0 h 30 z"
       id="path3888"
       inkscape:connector-curvature="0" />
  </clipPath>
  <g
     inkscape:groupmode="layer"
     id="layer4"
     inkscape:label="layer"
     style="display:inline"
     transform="translate(-2.0703125e-7,-2.6207031e-5)">
    <rect
       style="color:#000000;fill:#ffffff;fill-opacity:1;fill-rule:nonzero;stroke:none;stroke-width:0;marker:none;visibility:visible;display:inline;overflow:visible;enable-background:accumulate"
       id="rect3997"
       width="60"
       height="30"
       x="3.8089649e-15"
       y="2.6207032e-05"
       rx="1.9531247e-10"
       ry="1.9531249e-10" />
    <path
       inkscape:connector-curvature="0"
       id="path3958"
       d="M 27,2.6207031e-5 27,12.000026 l -27,0 0,5.999999 27,0 0,12.000001 6,0 0,-12.000001 27,0 0,-5.999999 -27,0 0,-11.999999792969 -6,0 z"
       style="font-size:medium;font-style:normal;font-variant:normal;font-weight:normal;font-stretch:normal;text-indent:0;text-align:start;text-decoration:none;line-height:normal;letter-spacing:normal;word-spacing:normal;text-transform:none;direction:ltr;block-progression:tb;writing-mode:lr-tb;text-anchor:start;baseline-shift:baseline;color:#000000;fill:#cf142b;fill-opacity:1;fill-rule:nonzero;stroke:none;stroke-width:0;marker:none;visibility:visible;display:inline;overflow:visible;enable-background:accumulate;font-family:Sans;-inkscape-font-specification:Sans" />
    <path
       style="color:#000000;fill:#cf142b;fill-opacity:1;fill-rule:nonzero;stroke:none;stroke-width:0;marker:none;visibility:visible;display:inline;overflow:visible;enable-background:accumulate"
       d="m 0,0.00310121 0,2.23125399 15.531171,7.765637 4.474977,0 z m 35.506065,9.99691579 4.498417,0 19.990208,-9.999990792969 -4.467157,0 z m -35.50136502,20.000009 4.46716422,0 20.0217588,-10.000017 -4.498415,0 z M 60,29.996926 l 0,-2.231254 -15.531171,-7.765638 -4.474977,0 z"
       id="path3954"
       inkscape:connector-curvature="0"
       sodipodi:nodetypes="cccccccccccccccccccc" />
    <path
       style="fill:#00247d;stroke:none;display:inline"
       d="M 6.725,2.6207031e-5 25,9.1281512 25,2.6207031e-5 l -18.275,0 z m 28.275,0 L 35,9.1281512 53.275,2.6207031e-5 l -18.275,0 z M 0,3.3594012 l 0,6.6406238 13.28125,0 L 0,3.3594012 z m 60,0 -13.28125,6.6406238 13.28125,0 0,-6.6406238 z M 0,20.000026 0,26.64065 13.28125,20.000026 0,20.000026 z m 46.71875,0 L 60,26.64065 l 0,-6.640624 -13.28125,0 z M 25,20.8719 6.725,30.000026 l 18.275,0 0,-9.128126 z m 10,0 0,9.128126 18.275,0 L 35,20.8719 z"
       id="path3950"
       inkscape:connector-curvature="0" />
  </g>
</svg>
