<?xml version="1.0" encoding="UTF-8" standalone="no"?>
<!-- Created with Inkscape (http://www.inkscape.org/) -->

<svg
   xmlns:dc="http://purl.org/dc/elements/1.1/"
   xmlns:cc="http://creativecommons.org/ns#"
   xmlns:rdf="http://www.w3.org/1999/02/22-rdf-syntax-ns#"
   xmlns:svg="http://www.w3.org/2000/svg"
   xmlns="http://www.w3.org/2000/svg"
   xmlns:sodipodi="http://sodipodi.sourceforge.net/DTD/sodipodi-0.dtd"
   xmlns:inkscape="http://www.inkscape.org/namespaces/inkscape"
   id="svg2"
   version="1.1"
   inkscape:version="0.48.4 r9939"
   width="885.825"
   height="885.825"
   xml:space="preserve"
   sodipodi:docname="guy.svg"><metadata
     id="metadata8"><rdf:RDF><cc:Work
         rdf:about=""><dc:format>image/svg+xml</dc:format><dc:type
           rdf:resource="http://purl.org/dc/dcmitype/StillImage" /><dc:title /></cc:Work></rdf:RDF></metadata><defs
     id="defs6"><clipPath
       clipPathUnits="userSpaceOnUse"
       id="clipPath18"><path
         d="m 0,708.66 708.66,0 L 708.66,0 0,0 0,708.66 z"
         id="path20" /></clipPath></defs><sodipodi:namedview
     pagecolor="#ffffff"
     bordercolor="#666666"
     borderopacity="1"
     objecttolerance="10"
     gridtolerance="10"
     guidetolerance="10"
     inkscape:pageopacity="0"
     inkscape:pageshadow="2"
     inkscape:window-width="1920"
     inkscape:window-height="1024"
     id="namedview4"
     showgrid="false"
     inkscape:zoom="0.75354477"
     inkscape:cx="629.32381"
     inkscape:cy="459.47061"
     inkscape:window-x="-2"
     inkscape:window-y="-3"
     inkscape:window-maximized="1"
     inkscape:current-layer="g10" /><g
     id="g10"
     inkscape:groupmode="layer"
     inkscape:label="vectorstock_2103624"
     transform="matrix(1.25,0,0,-1.25,0,885.825)"><path
       d="m 0.001,0 708.659,0 0,708.66 -708.659,0 0,-708.66 z"
       style="fill:#a6c0c9;fill-opacity:1;fill-rule:nonzero;stroke:none"
       id="path12" /><g
       id="g22"
       transform="translate(333.0923,500.0605)"><path
         d="m 0,0 c -112.426,9.266 -47.588,159.763 37.908,101.266 3,16.499 36.333,16.415 36.333,10 3.001,76 104.25,79.225 134.249,16.228 10.499,7.499 18.251,11.272 28.751,15.772 13.932,3.981 59.167,18.334 80.743,-14.272 8.953,-13.531 17.236,-47.74 12,-64.497 -7.5,-23.999 -18.411,-34.231 -39.41,-34.231 4.5,-11.999 -0.001,-17.5 -12,-16 25.834,-30.666 53.334,-102.175 -16.666,-144.415 -43.498,-23.568 -115,-15.906 -129.332,77.355 -1.5,-37.498 -37.181,-79.727 -88.668,-61.714 C -59.969,-78.168 0,0 0,0"
         style="fill:#f8f6e4;fill-opacity:1;fill-rule:nonzero;stroke:none"
         id="path24"
         inkscape:connector-curvature="0" /></g><g
       id="g26"
       transform="translate(339.1157,370.5664)"><path
         d="M 0,0 C -6,-28.985 38,-38 44,-12 50,12 14,15 3.33,5.667 L 0,0 z"
         style="fill:#f8f6e4;fill-opacity:1;fill-rule:nonzero;stroke:none"
         id="path28"
         inkscape:connector-curvature="0" /></g><g
       id="g30"
       transform="translate(301.4858,337.1641)"><path
         d="M 0,0 C -4.055,-19.586 25.678,-25.678 29.732,-8.108 33.787,8.109 9.46,10.137 2.25,3.83 L 0,0 z"
         style="fill:#f8f6e4;fill-opacity:1;fill-rule:nonzero;stroke:none"
         id="path32"
         inkscape:connector-curvature="0" /></g><g
       id="g34"
       transform="translate(335,69.7676)"><path
         d="m 0,0 c 0,-12.209 -57.308,-22.107 -128,-22.107 -70.692,0 -128,9.898 -128,22.107 0,12.21 57.308,22.107 128,22.107 C -57.308,22.107 0,12.21 0,0"
         style="fill:#8ca8af;fill-opacity:1;fill-rule:nonzero;stroke:none"
         id="path36"
         inkscape:connector-curvature="0" /></g><g
       id="g66"
       transform="translate(160.6143,188.1348)"><path
         d="m 0,0 84.898,0 c 0,0 4.047,-67.015 5.405,-95.584 0,0 31.878,2.724 33.051,-17.684 l -41.686,0 -13.606,97.272 -48.176,-0.682 -13.72,-96.59 -41.007,0 c -5.42,9.52 20.061,21.002 33.665,19.722 L 0,0 z"
         style="fill:#508694;fill-opacity:1;fill-rule:nonzero;stroke:none"
         id="path68"
         inkscape:connector-curvature="0" /></g><g
       id="g70"
       transform="translate(122.561,74.8672)"><path
         d="m 0,0 47.915,0 0,26.017 -15.969,0 0,-5.472 C 31.946,20.545 0,24.009 0,0"
         style="fill:#8e5722;fill-opacity:1;fill-rule:nonzero;stroke:none"
         id="path72"
         inkscape:connector-curvature="0" /></g><g
       id="g74"
       transform="translate(238.1484,100.8838)"><path
         d="m 0,0 1.468,-26.017 44.352,0 c 0,0 5.773,21.836 -29.793,19.528 L 16.431,0 0,0 z"
         style="fill:#8e5722;fill-opacity:1;fill-rule:nonzero;stroke:none"
         id="path76"
         inkscape:connector-curvature="0" /></g><g
       id="g78"
       transform="translate(184.6904,295.4814)"><path
         d="m 0,0 c 0,0 -30.881,-74.953 -28.354,-111.681 0,0 91.911,-3.192 92.76,-0.416 C 68.035,-100.306 46.147,-14.51 29.704,0 L 0,0 z"
         style="fill:#f8f6e4;fill-opacity:1;fill-rule:nonzero;stroke:none"
         id="path80"
         inkscape:connector-curvature="0" /></g><g
       id="g82"
       transform="translate(162.124,199.2754)"><path
         d="M 0,0 C 0,0 13.955,11.162 20.363,-2.793 30.802,-25.52 19.616,-37.077 6.978,-36.9 -3.454,-36.754 -16.69,-20.48 -18.705,-15.591 -20.719,-10.701 0,0 0,0"
         style="fill:#ffdfa9;fill-opacity:1;fill-rule:nonzero;stroke:none"
         id="path84"
         inkscape:connector-curvature="0" /></g><g
       id="g86"
       transform="translate(178.4048,273.7012)"><path
         d="m 0,0 c 0,0 -44.191,-27.91 -42.331,-50.239 1.995,-23.916 21.127,-27.785 20.55,-28.364 -3.099,-3.099 -8.619,-17.162 -8.619,-17.162 0,0 -28.687,10.395 -31.231,41.805 -2.561,31.633 58.295,67.481 64.712,68.537 L 0,0 z"
         style="fill:#ffdfa9;fill-opacity:1;fill-rule:nonzero;stroke:none"
         id="path88"
         inkscape:connector-curvature="0" /></g><g
       id="g90"
       transform="translate(139.6064,260.0859)"><path
         d="M 0,0 9.484,-9.581 2.245,-19.434 -2.586,-2.447 0,0 z"
         style="fill:#f9d39b;fill-opacity:1;fill-rule:nonzero;stroke:none"
         id="path92"
         inkscape:connector-curvature="0" /></g><g
       id="g94"
       transform="translate(135.5513,263.7061)"><path
         d="m 0,0 16.876,-16.454 30.675,19.734 0,20.941 C 47.551,24.221 21.939,28.579 0,0"
         style="fill:#f8f6e4;fill-opacity:1;fill-rule:nonzero;stroke:none"
         id="path96"
         inkscape:connector-curvature="0" /></g><g
       id="g98"
       transform="translate(290.5762,375.9614)"><path
         d="m 0,0 c 0,-49.583 -40.197,-89.781 -89.778,-89.781 -49.587,0 -89.782,40.198 -89.782,89.781 0,49.583 40.195,89.779 89.782,89.779 C -40.197,89.779 0,49.583 0,0"
         style="fill:#ffdfa9;fill-opacity:1;fill-rule:nonzero;stroke:none"
         id="path100"
         inkscape:connector-curvature="0" /></g><g
       id="g102"
       transform="translate(124.7695,392.8115)"><path
         d="m 0,0 c 0,0 16.43,41.739 27.23,38.849 37.09,-9.925 55.005,10.832 97.496,-4 0,0 16.823,-21.5 22.775,-30.067 L 134.23,51.849 18.286,57.849 0,0 z"
         style="fill:#f9d39b;fill-opacity:1;fill-rule:nonzero;stroke:none"
         id="path104"
         inkscape:connector-curvature="0" /></g><g
       id="g106"
       transform="translate(184.7129,287.6191)"><path
         d="M 0,0 C 0,0 12.325,26.604 21.178,25.834 30.03,25.064 56.028,13.521 57.943,8.901 57.943,8.901 24.786,-8.383 0,0"
         style="fill:#f9d39b;fill-opacity:1;fill-rule:nonzero;stroke:none"
         id="path108"
         inkscape:connector-curvature="0" /></g><g
       id="g110"
       transform="translate(209.1616,245.8437)"><path
         d="m 0,0 15.857,11.224 c 0,0 25.284,-38.964 30.619,-34.064 13.199,12.124 -25.553,46.572 -36.791,53.115 l 2.631,9.775 c 0,0 40.222,-14.971 50.887,-38.834 C 79.266,-34.73 52.81,-54.979 36.26,-45.741 23.462,-38.6 0,0 0,0"
         style="fill:#ffdfa9;fill-opacity:1;fill-rule:nonzero;stroke:none"
         id="path112"
         inkscape:connector-curvature="0" /></g><g
       id="g114"
       transform="translate(263.144,260.0859)"><path
         d="m 0,0 -13.811,-11.982 c 0,0 6.265,-9.271 6.906,-10.746 0,0 1.761,16.302 6.905,22.728"
         style="fill:#f9d39b;fill-opacity:1;fill-rule:nonzero;stroke:none"
         id="path116"
         inkscape:connector-curvature="0" /></g><g
       id="g118"
       transform="translate(215.5127,268.5742)"><path
         d="m 0,0 4.133,19.59 c 0,0 36.281,-9.158 46.673,-25.323 L 31.176,-22.766 C 31.176,-22.766 8.083,0 0,0"
         style="fill:#f8f6e4;fill-opacity:1;fill-rule:nonzero;stroke:none"
         id="path120"
         inkscape:connector-curvature="0" /></g><g
       id="g122"
       transform="translate(193.5654,271.0996)"><path
         d="m 0,0 c 0,0 -7.149,11.568 -3.377,19.837 4.067,8.913 15.53,21.857 19.864,19.366 4.335,-2.489 11.771,-19.464 13.524,-23.047 1.751,-3.585 2.298,-1.434 2.298,-1.434 l 5.072,10.454 c 0,0 9.115,1.552 6.836,-5.232 C 41.938,13.163 38.784,4.86 36.956,-1.846 35.129,-8.55 30.601,-18.913 35.116,-19.502 L 18.062,-29.205 0,0 z"
         style="fill:#ffdfa9;fill-opacity:1;fill-rule:nonzero;stroke:none"
         id="path124"
         inkscape:connector-curvature="0" /></g><g
       id="g126"
       transform="translate(278.5264,457.1396)"><path
         d="m 0,0 c 0,0 -13.466,84.763 -182.156,61.636 0,0 -4.921,-32.074 20.06,-55.72 -29.869,-35.894 -13.423,-89.358 -13.423,-89.358 l 21.6,-0.457 c -5.744,27.565 18.041,61.35 25.587,71.203 18.382,-5.536 42.905,-7.887 75.646,-4.664 20.758,2.045 26.926,-1.685 26.926,-1.685 0,0 24.176,-33.67 22.818,-64.96 l 19.639,-1.374 c 0,0 21.165,75.506 -16.697,85.379"
         style="fill:#e18256;fill-opacity:1;fill-rule:nonzero;stroke:none"
         id="path128"
         inkscape:connector-curvature="0" /></g><g
       id="g130"
       transform="translate(120.0845,373.6445)"><path
         d="m 0,0 c 1.22,-11.166 -2.206,-20.695 -7.649,-21.292 -5.444,-0.593 -10.845,7.974 -12.064,19.14 -1.219,11.165 2.206,20.698 7.65,21.29 C -6.618,19.733 -1.219,11.161 0,0"
         style="fill:#ffdfa9;fill-opacity:1;fill-rule:nonzero;stroke:none"
         id="path132"
         inkscape:connector-curvature="0" /></g><g
       id="g134"
       transform="translate(301.0122,372.0771)"><path
         d="m 0,0 c -0.753,-11.141 -5.766,-19.873 -11.197,-19.508 -5.434,0.368 -9.225,9.7 -8.472,20.84 0.753,11.137 5.769,19.872 11.199,19.5 C -3.041,20.466 0.75,11.136 0,0"
         style="fill:#ffdfa9;fill-opacity:1;fill-rule:nonzero;stroke:none"
         id="path136"
         inkscape:connector-curvature="0" /></g><g
       id="g138"
       transform="translate(160.8403,378.4141)"><path
         d="m 0,0 c 0,-4.695 3.17,-8.503 7.078,-8.503 3.91,0 7.082,3.808 7.082,8.503 0,4.696 -3.172,8.503 -7.082,8.503 C 3.17,8.503 0,4.696 0,0"
         style="fill:#8e5722;fill-opacity:1;fill-rule:nonzero;stroke:none"
         id="path140"
         inkscape:connector-curvature="0" /></g><g
       id="g142"
       transform="translate(168.1611,384.0493)"><path
         d="m 0,0 c 0,-0.83 0.558,-1.501 1.244,-1.501 0.688,0 1.245,0.671 1.245,1.501 0,0.831 -0.557,1.503 -1.245,1.503 C 0.558,1.503 0,0.831 0,0"
         style="fill:#fffcdd;fill-opacity:1;fill-rule:nonzero;stroke:none"
         id="path144"
         inkscape:connector-curvature="0" /></g><g
       id="g146"
       transform="translate(229.0078,377.7065)"><path
         d="m 0,0 c 0,-4.559 3.243,-8.255 7.243,-8.255 4.001,0 7.244,3.696 7.244,8.255 0,4.561 -3.243,8.255 -7.244,8.255 C 3.243,8.255 0,4.561 0,0"
         style="fill:#8e5722;fill-opacity:1;fill-rule:nonzero;stroke:none"
         id="path148"
         inkscape:connector-curvature="0" /></g><g
       id="g150"
       transform="translate(236.1157,383.0815)"><path
         d="m 0,0 c 0,-0.994 0.703,-1.8 1.571,-1.8 0.868,0 1.572,0.806 1.572,1.8 0,0.995 -0.704,1.8 -1.572,1.8 C 0.703,1.8 0,0.995 0,0"
         style="fill:#fffcdd;fill-opacity:1;fill-rule:nonzero;stroke:none"
         id="path152"
         inkscape:connector-curvature="0" /></g><g
       id="g154"
       transform="translate(178.4419,326.75)"><path
         d="M 0,0 C 9.537,-3.102 19.626,-5.084 29.63,-5.681 39.647,-6.278 53.811,-4.9 57.271,6.445 57.408,6.896 55.274,6.531 55.093,5.937 51.044,-7.341 32.904,-5.298 22.158,-3.736 15.286,-2.738 8.385,-1.165 1.776,0.983 1.26,1.151 -0.705,0.229 0,0"
         style="fill:#8e5722;fill-opacity:1;fill-rule:nonzero;stroke:none"
         id="path156"
         inkscape:connector-curvature="0" /></g></g></svg>